# xmcd
#
# Track frame offsets:
#	150
#	17445
#	40449
#	54165
#	71505
#	88114
#	116181
#	127909
#	148735
#	162298
#	173837
#	189812
#	202355
#	215129
#	227754
#	240182
#
# Disc length: 3421 seconds
#
# Revision: 0
# Processed by: cddbd v1.5.2PL0 Copyright (c) Steve Scherf et al.
# Submitted via: dBpowerAMP V4.0
#
DISCID=df0d5b10
DTITLE=Various Artist - Funk Soul Brothers - The Further Adventures Of
DYEAR=2002
DGENRE=Funk
TTITLE0=Leroy Hutson - Never Know What You Can Do  (Give It A Try)
TTITLE1=Cymande - Bra
TTITLE2=Ripple - Funky Song
TTITLE3=Joe Thomas - Thank U Fa Lettin Me Be Mice Elf Again
TTITLE4=Bobby Womack - If You Want My Love (Put Something Down On It)
TTITLE5=Baby Huey and The Babysitters - Hard Times
TTITLE6=Lightnin' Rod - Sport
TTITLE7=Reuben Wilson - Innet City Blues
TTITLE8=Meters - Cissy Strut
TTITLE9=O'Donel Levy - Freedom and Good Times
TTITLE10=Joe Quarterman and Free Soul - Give Me Back My Freedom
TTITLE11=Maceo and All The King's Men - Got To Getcha
TTITLE12=Lonnie Smith - Lean Meat
TTITLE13=Funkadelic - Soul Mate
TTITLE14=Pee Wee Ellis - Moon Walk
TTITLE15=Curtis Mayfield - You're So Good To Me
EXTD=
EXTT0=
EXTT1=
EXTT2=
EXTT3=
EXTT4=
EXTT5=
EXTT6=
EXTT7=
EXTT8=
EXTT9=
EXTT10=
EXTT11=
EXTT12=
EXTT13=
EXTT14=
EXTT15=
PLAYORDER=
